<svg width="512" height="512" xmlns="http://www.w3.org/2000/svg">

 <g>
  <title>background</title>
  <rect fill="none" id="canvas_background" height="402" width="582" y="-1" x="-1"/>
 </g>
 <g>
  <title>Layer 1</title>
  <path stroke="#000" fill="none" id="svg_3" d="m264.181,76.908997c-93.645996,0 -169.560997,75.915009 -169.560997,169.561005s75.915001,169.561005 169.560997,169.561005s169.561005,-75.915009 169.561005,-169.561005s-75.915009,-169.561005 -169.561005,-169.561005zm-0.001007,298.220001c-70.942001,0 -128.658005,-57.716003 -128.658005,-128.658005s57.716003,-128.658005 128.658005,-128.658005s128.65802,57.716003 128.65802,128.658005s-57.715027,128.658005 -128.65802,128.658005z"/>
  <path stroke="#000" fill="none" id="svg_6" d="m264.179993,152.298996c-51.92601,0 -94.17099,42.244995 -94.17099,94.17099c0,51.92601 42.24498,94.171005 94.17099,94.171005c51.925995,0 94.17099,-42.244995 94.17099,-94.171005s-42.243988,-94.17099 -94.17099,-94.17099z"/>
  <path stroke="#000" fill="none" id="svg_9" d="m501.315002,260.687012l0,-206.047012c0,-1.987999 -1.269012,-3.755001 -3.154999,-4.389999c-1.884003,-0.633999 -3.963013,0.007 -5.166016,1.591c-25.707977,33.903004 -39.621979,75.283001 -39.621979,117.830006l0,75.377991c0,8.645004 7.007996,15.654007 15.653992,15.654007l6.526001,0c-6.433014,66.442993 -10.68399,159.369995 -10.68399,170.251007c0,17.141998 10.550995,31.037994 23.565979,31.037994c13.015015,0 23.56601,-13.897003 23.56601,-31.037994c0,-10.882019 -4.251007,-103.824005 -10.684998,-170.266998z"/>
  <path stroke="#000" fill="none" id="svg_12" d="m68.417,219.843002c13.042,-7.900009 21.759003,-22.223999 21.759003,-38.585999l-6.459999,-105.621002c-0.247002,-4.026001 -3.584,-7.165001 -7.618004,-7.165001c-4.362999,0 -7.838997,3.654999 -7.622002,8.010002l4.201004,84.709c0,4.761993 -3.861,8.621002 -8.621002,8.621002c-4.761002,0 -8.620998,-3.861008 -8.620998,-8.621002l-2.099003,-84.674004c-0.111,-4.474998 -3.769997,-8.043999 -8.246998,-8.043999c-4.477001,0 -8.135002,3.57 -8.247002,8.043999l-2.098999,84.674004c0,4.761993 -3.861,8.621002 -8.621,8.621002c-4.761,0 -8.621,-3.861008 -8.621,-8.621002l4.201,-84.709c0.216,-4.357002 -3.261999,-8.010002 -7.622,-8.010002c-4.034,0 -7.371,3.139 -7.617,7.165001l-6.463,105.621994c0,16.362 8.716,30.684998 21.759001,38.585999c8.487999,5.140991 13.219999,14.752991 12.125998,24.616989c-7.362999,66.358017 -12.362999,174.693008 -12.362999,186.494003c0,17.141998 10.551003,31.038025 23.566002,31.038025c13.014999,0 23.565998,-13.897003 23.565998,-31.038025c0,-11.800995 -5.000999,-120.135986 -12.362999,-186.494003c-1.095001,-9.858978 3.641998,-19.478989 12.125999,-24.617981z"/>
 </g>
</svg>